<?xml version="1.0" encoding="utf-8"?>
<!-- Svg Vector Icons : http://www.onlinewebfonts.com/icon -->
<!DOCTYPE svg PUBLIC "-//W3C//DTD SVG 1.1//EN" "http://www.w3.org/Graphics/SVG/1.1/DTD/svg11.dtd">
<svg version="1.1" xmlns="http://www.w3.org/2000/svg" xmlns:xlink="http://www.w3.org/1999/xlink" x="0px" y="0px" viewBox="0 0 1000 1000" enable-background="new 0 0 1000 1000" xml:space="preserve">
<metadata> Svg Vector Icons : http://www.onlinewebfonts.com/icon </metadata>
<g><path d="M366.2,500c0,73.9,59.9,133.8,133.8,133.8c73.9,0,133.8-59.9,133.8-133.8c0-73.9-59.9-133.8-133.8-133.8C426.1,366.2,366.2,426.1,366.2,500z"/><path d="M981.4,467.7c0,0-0.6-12.7-118.5-123C694.3,198.9,544.1,178,432.3,191.8c-111.8,13.8-195.9,74-202.6,77.7C176.6,299.1,95.9,378,69,406c-26.9,28-42.2,40-51.2,58.3c-21.3,43.7,7.8,87.5,7.8,87.5l74.4,74.8c0,0,167.4,185.2,387.2,185.2c219.8,0,324.1-94.4,368.2-128.8c44.1-34.4,98.3-96.8,126-133.8C1000.8,507.7,981.4,467.7,981.4,467.7z M500,724.6C376,724.6,275.4,624,275.4,500c0-124,100.6-224.6,224.6-224.6c124,0,224.6,100.6,224.6,224.6C724.6,624,624,724.6,500,724.6z"/></g>
</svg>