<svg width="24" height="24" viewBox="0 0 24 24" fill="none" xmlns="http://www.w3.org/2000/svg">
<path d="M18.2513 4.62231C18.2513 6.19061 16.98 7.46173 15.4119 7.46173C13.8436 7.46173 12.5725 6.19061 12.5725 4.62231C12.5725 3.0542 13.8436 1.7829 15.4119 1.7829C16.98 1.7829 18.2513 3.0542 18.2513 4.62231V4.62231Z" fill="#FFCF11"/>
<path d="M20.3072 6.75531C20.3072 8.32361 19.0359 9.59473 17.4678 9.59473C15.8995 9.59473 14.6282 8.32361 14.6282 6.75531C14.6282 5.18719 15.8995 3.91589 17.4678 3.91589C19.0359 3.91589 20.3072 5.18719 20.3072 6.75531V6.75531Z" fill="#FFCF11"/>
<path d="M9.37164 6.75531C9.37164 8.32361 8.10034 9.59473 6.53204 9.59473C4.96393 9.59473 3.69263 8.32361 3.69263 6.75531C3.69263 5.18719 4.96393 3.91589 6.53204 3.91589C8.10034 3.91589 9.37164 5.18719 9.37164 6.75531Z" fill="#FFCF11"/>
<path d="M11.4274 4.62231C11.4274 6.19061 10.1563 7.46173 8.58795 7.46173C7.01984 7.46173 5.74854 6.19061 5.74854 4.62231C5.74854 3.0542 7.01984 1.7829 8.58795 1.7829C10.1563 1.7829 11.4274 3.0542 11.4274 4.62231Z" fill="#FFCF11"/>
<path d="M14.8392 2.83942C14.8392 4.40771 13.5679 5.67883 11.9998 5.67883C10.4317 5.67883 9.1604 4.40771 9.1604 2.83942C9.1604 1.2713 10.4317 0 11.9998 0C13.5679 0 14.8392 1.2713 14.8392 2.83942V2.83942Z" fill="#FFCF11"/>
<path d="M7.7973 8.00317C7.7973 9.24225 6.79297 10.2468 5.55389 10.2468C4.31482 10.2468 3.3103 9.24225 3.3103 8.00317C3.3103 6.7641 4.31482 5.75958 5.55389 5.75958C6.79297 5.75958 7.7973 6.7641 7.7973 8.00317Z" fill="#FFE854"/>
<path d="M10.8948 7.40717C10.8948 8.97546 9.62353 10.2468 8.05542 10.2468C6.48712 10.2468 5.21582 8.97546 5.21582 7.40717C5.21582 5.83905 6.48712 4.56775 8.05542 4.56775C9.62353 4.56775 10.8948 5.83905 10.8948 7.40717Z" fill="#FFE854"/>
<path d="M16.1224 6.49054C16.1224 8.56494 14.4407 10.2468 12.3663 10.2468C10.2917 10.2468 8.61011 8.56494 8.61011 6.49054C8.61011 4.41614 10.2917 2.73431 12.3663 2.73431C14.4407 2.73431 16.1224 4.41614 16.1224 6.49054V6.49054Z" fill="#FFE854"/>
<path d="M19.5167 7.40717C19.5167 8.97546 18.2454 10.2468 16.6773 10.2468C15.109 10.2468 13.8379 8.97546 13.8379 7.40717C13.8379 5.83905 15.109 4.56775 16.6773 4.56775C18.2454 4.56775 19.5167 5.83905 19.5167 7.40717Z" fill="#FFE854"/>
<path d="M21.4225 8.00317C21.4225 9.24225 20.418 10.2468 19.1789 10.2468C17.9398 10.2468 16.9353 9.24225 16.9353 8.00317C16.9353 6.7641 17.9398 5.75958 19.1789 5.75958C20.418 5.75958 21.4225 6.7641 21.4225 8.00317V8.00317Z" fill="#FFE854"/>
<path d="M8.737 8.42688C8.737 9.34991 7.98865 10.0983 7.06561 10.0983C6.14239 10.0983 5.39404 9.34991 5.39404 8.42688C5.39404 7.50366 6.14239 6.75531 7.06561 6.75531C7.98865 6.75531 8.737 7.50366 8.737 8.42688Z" fill="#FFCF11"/>
<path d="M15.9724 8.00317C15.9724 8.92639 15.224 9.67474 14.301 9.67474C13.3777 9.67474 12.6294 8.92639 12.6294 8.00317C12.6294 7.08014 13.3777 6.33179 14.301 6.33179C15.224 6.33179 15.9724 7.08014 15.9724 8.00317V8.00317Z" fill="#FFCF11"/>
<path d="M19.923 8.72186C19.923 9.64508 19.1747 10.3934 18.2515 10.3934C17.3284 10.3934 16.5801 9.64508 16.5801 8.72186C16.5801 7.79883 17.3284 7.05048 18.2515 7.05048C19.1747 7.05048 19.923 7.79883 19.923 8.72186V8.72186Z" fill="#FFCF11"/>
<path d="M11.657 7.46191C11.657 8.61896 10.7191 9.55701 9.56189 9.55701C8.40485 9.55701 7.4668 8.61896 7.4668 7.46191C7.4668 6.30469 8.40485 5.36664 9.56189 5.36664C10.7191 5.36664 11.657 6.30469 11.657 7.46191Z" fill="#FFCF11"/>
<path d="M18.4912 7.46191C18.4912 8.61896 17.5532 9.55701 16.3961 9.55701C15.2389 9.55701 14.301 8.61896 14.301 7.46191C14.301 6.30469 15.2389 5.36664 16.3961 5.36664C17.5532 5.36664 18.4912 6.30469 18.4912 7.46191Z" fill="#FFCF11"/>
<path d="M4.3288 21.2276C6.40851 22.9585 9.08258 24 12 24C14.9174 24 17.5915 22.9585 19.6712 21.2276L21.2834 9.59985H2.71655L4.3288 21.2276Z" fill="#B790DC"/>
<path d="M2.97656 11.4749H21.0234L21.2834 9.59985H2.71655L2.97656 11.4749Z" fill="#A282C0"/>
<path d="M13.7485 23.8727C14.673 23.7378 15.5637 23.4979 16.4072 23.1647L17.5269 9.59985H14.2224L13.7485 23.8727Z" fill="#EBF0F3"/>
<path d="M9.7774 9.59985H6.4729L7.59277 23.1647C8.43616 23.4979 9.32678 23.7378 10.2513 23.8727L9.7774 9.59985Z" fill="#EBF0F3"/>
<path d="M14.1602 11.4749H17.372L17.5269 9.59985H14.2224L14.1602 11.4749Z" fill="#C7D9FF"/>
<path d="M9.7774 9.59985H6.4729L6.62781 11.4749H9.83966L9.7774 9.59985Z" fill="#C7D9FF"/>
<path d="M21.6385 10.7717H2.36157C2.10706 10.7717 1.90088 10.5656 1.90088 10.3112V8.88849C1.90088 8.63416 2.10706 8.42798 2.36157 8.42798H21.6385C21.8931 8.42798 22.0992 8.63416 22.0992 8.88849V10.3112C22.0992 10.5656 21.8931 10.7717 21.6385 10.7717Z" fill="#B790DC"/>
</svg>
