<svg width="113" height="26" viewBox="0 0 113 26" fill="none" xmlns="http://www.w3.org/2000/svg">
<path d="M29.4489 21H33.0795V13.142C33.0795 11.6932 34 10.7301 35.2102 10.7301C36.4034 10.7301 37.2045 11.5483 37.2045 12.8352V21H40.7244V13.0057C40.7244 11.6506 41.5 10.7301 42.821 10.7301C43.9801 10.7301 44.8494 11.4545 44.8494 12.9119V21H48.4716V12.196C48.4716 9.35795 46.7841 7.73864 44.3466 7.73864C42.429 7.73864 40.9375 8.71875 40.4006 10.2188H40.2642C39.8466 8.7017 38.5085 7.73864 36.7102 7.73864C34.946 7.73864 33.608 8.67614 33.0625 10.2188H32.9091V7.90909H29.4489V21ZM57.2543 21.2557C61.2259 21.2557 63.6974 18.5369 63.6974 14.5057C63.6974 10.4489 61.2259 7.73864 57.2543 7.73864C53.2827 7.73864 50.8111 10.4489 50.8111 14.5057C50.8111 18.5369 53.2827 21.2557 57.2543 21.2557ZM57.2713 18.4432C55.4389 18.4432 54.5014 16.7642 54.5014 14.4801C54.5014 12.196 55.4389 10.5085 57.2713 10.5085C59.0696 10.5085 60.0071 12.196 60.0071 14.4801C60.0071 16.7642 59.0696 18.4432 57.2713 18.4432ZM77.8175 7.90909H73.9737L71.2635 17.2756H71.1271L68.4084 7.90909H64.5732L69.1499 21H73.2408L77.8175 7.90909ZM79.6754 21H83.3061V7.90909H79.6754V21ZM81.4993 6.22159C82.5817 6.22159 83.468 5.39489 83.468 4.38068C83.468 3.375 82.5817 2.54829 81.4993 2.54829C80.4254 2.54829 79.5391 3.375 79.5391 4.38068C79.5391 5.39489 80.4254 6.22159 81.4993 6.22159ZM92.1804 21.2557C95.419 21.2557 97.6009 19.679 98.1122 17.25L94.7543 17.0284C94.3878 18.0256 93.4503 18.5455 92.2401 18.5455C90.4247 18.5455 89.2741 17.3438 89.2741 15.392V15.3835H98.1889V14.3864C98.1889 9.9375 95.4957 7.73864 92.0355 7.73864C88.1832 7.73864 85.6861 10.4744 85.6861 14.5142C85.6861 18.6648 88.1491 21.2557 92.1804 21.2557ZM89.2741 13.1335C89.3509 11.642 90.4844 10.4489 92.0952 10.4489C93.6719 10.4489 94.7628 11.5739 94.7713 13.1335H89.2741ZM111.45 11.642C111.126 9.23011 109.183 7.73864 105.876 7.73864C102.527 7.73864 100.32 9.28977 100.328 11.8125C100.32 13.7727 101.555 15.0426 104.112 15.554L106.379 16.0057C107.521 16.2358 108.041 16.6534 108.058 17.3097C108.041 18.0852 107.197 18.6392 105.928 18.6392C104.632 18.6392 103.771 18.0852 103.55 17.0199L99.9787 17.2074C100.32 19.7131 102.45 21.2557 105.919 21.2557C109.311 21.2557 111.74 19.5256 111.749 16.9432C111.74 15.0511 110.504 13.9176 107.964 13.3977L105.595 12.9205C104.376 12.6562 103.925 12.2386 103.933 11.608C103.925 10.8239 104.811 10.3125 105.936 10.3125C107.197 10.3125 107.947 11.0028 108.126 11.8466L111.45 11.642Z" fill="#201D1D"/>
<path d="M18.2514 6.62232C18.2514 8.19061 16.9801 9.46173 15.412 9.46173C13.8437 9.46173 12.5726 8.19061 12.5726 6.62232C12.5726 5.0542 13.8437 3.7829 15.412 3.7829C16.9801 3.7829 18.2514 5.0542 18.2514 6.62232V6.62232Z" fill="#FFCF11"/>
<path d="M20.3073 8.75531C20.3073 10.3236 19.036 11.5947 17.4679 11.5947C15.8996 11.5947 14.6283 10.3236 14.6283 8.75531C14.6283 7.1872 15.8996 5.9159 17.4679 5.9159C19.036 5.9159 20.3073 7.1872 20.3073 8.75531V8.75531Z" fill="#FFCF11"/>
<path d="M9.3717 8.75531C9.3717 10.3236 8.1004 11.5947 6.5321 11.5947C4.96399 11.5947 3.69269 10.3236 3.69269 8.75531C3.69269 7.1872 4.96399 5.9159 6.5321 5.9159C8.1004 5.9159 9.3717 7.1872 9.3717 8.75531Z" fill="#FFCF11"/>
<path d="M11.4274 6.62232C11.4274 8.19061 10.1563 9.46173 8.58801 9.46173C7.0199 9.46173 5.7486 8.19061 5.7486 6.62232C5.7486 5.0542 7.0199 3.7829 8.58801 3.7829C10.1563 3.7829 11.4274 5.0542 11.4274 6.62232Z" fill="#FFCF11"/>
<path d="M14.8394 4.83942C14.8394 6.40771 13.5681 7.67883 12 7.67883C10.4319 7.67883 9.16058 6.40771 9.16058 4.83942C9.16058 3.2713 10.4319 2 12 2C13.5681 2 14.8394 3.2713 14.8394 4.83942V4.83942Z" fill="#FFCF11"/>
<path d="M7.79736 10.0032C7.79736 11.2422 6.79303 12.2468 5.55396 12.2468C4.31488 12.2468 3.31036 11.2422 3.31036 10.0032C3.31036 8.7641 4.31488 7.75958 5.55396 7.75958C6.79303 7.75958 7.79736 8.7641 7.79736 10.0032Z" fill="#FFE854"/>
<path d="M10.8948 9.40717C10.8948 10.9755 9.62347 12.2468 8.05536 12.2468C6.48706 12.2468 5.21576 10.9755 5.21576 9.40717C5.21576 7.83905 6.48706 6.56775 8.05536 6.56775C9.62347 6.56775 10.8948 7.83905 10.8948 9.40717Z" fill="#FFE854"/>
<path d="M16.1224 8.49054C16.1224 10.5649 14.4408 12.2468 12.3664 12.2468C10.2918 12.2468 8.61017 10.5649 8.61017 8.49054C8.61017 6.41614 10.2918 4.73431 12.3664 4.73431C14.4408 4.73431 16.1224 6.41614 16.1224 8.49054V8.49054Z" fill="#FFE854"/>
<path d="M19.5168 9.40717C19.5168 10.9755 18.2455 12.2468 16.6774 12.2468C15.1091 12.2468 13.838 10.9755 13.838 9.40717C13.838 7.83905 15.1091 6.56775 16.6774 6.56775C18.2455 6.56775 19.5168 7.83905 19.5168 9.40717Z" fill="#FFE854"/>
<path d="M21.4224 10.0032C21.4224 11.2422 20.4179 12.2468 19.1788 12.2468C17.9398 12.2468 16.9352 11.2422 16.9352 10.0032C16.9352 8.7641 17.9398 7.75958 19.1788 7.75958C20.4179 7.75958 21.4224 8.7641 21.4224 10.0032V10.0032Z" fill="#FFE854"/>
<path d="M8.73688 10.4269C8.73688 11.3499 7.98853 12.0983 7.06549 12.0983C6.14228 12.0983 5.39392 11.3499 5.39392 10.4269C5.39392 9.50366 6.14228 8.75531 7.06549 8.75531C7.98853 8.75531 8.73688 9.50366 8.73688 10.4269Z" fill="#FFCF11"/>
<path d="M15.9725 10.0032C15.9725 10.9264 15.2241 11.6747 14.3011 11.6747C13.3779 11.6747 12.6295 10.9264 12.6295 10.0032C12.6295 9.08014 13.3779 8.33179 14.3011 8.33179C15.2241 8.33179 15.9725 9.08014 15.9725 10.0032V10.0032Z" fill="#FFCF11"/>
<path d="M19.923 10.7219C19.923 11.6451 19.1746 12.3934 18.2514 12.3934C17.3284 12.3934 16.58 11.6451 16.58 10.7219C16.58 9.79883 17.3284 9.05048 18.2514 9.05048C19.1746 9.05048 19.923 9.79883 19.923 10.7219V10.7219Z" fill="#FFCF11"/>
<path d="M11.657 9.46192C11.657 10.619 10.7192 11.557 9.56195 11.557C8.40491 11.557 7.46686 10.619 7.46686 9.46192C7.46686 8.30469 8.40491 7.36664 9.56195 7.36664C10.7192 7.36664 11.657 8.30469 11.657 9.46192Z" fill="#FFCF11"/>
<path d="M18.4913 9.46192C18.4913 10.619 17.5532 11.557 16.3962 11.557C15.239 11.557 14.3011 10.619 14.3011 9.46192C14.3011 8.30469 15.239 7.36664 16.3962 7.36664C17.5532 7.36664 18.4913 8.30469 18.4913 9.46192Z" fill="#FFCF11"/>
<path d="M4.3288 23.2276C6.40851 24.9585 9.08258 26 12 26C14.9174 26 17.5915 24.9585 19.6712 23.2276L21.2834 11.5999H2.71655L4.3288 23.2276Z" fill="#B790DC"/>
<path d="M2.97656 13.4749H21.0234L21.2834 11.5999H2.71655L2.97656 13.4749Z" fill="#B790DC"/>
<path d="M13.7487 25.8727C14.6732 25.7378 15.5638 25.4979 16.4073 25.1647L17.527 11.5999H14.2225L13.7487 25.8727Z" fill="#EBF0F3"/>
<path d="M9.77747 11.5999H6.47296L7.59283 25.1647C8.43622 25.4979 9.32684 25.7378 10.2513 25.8727L9.77747 11.5999Z" fill="#EBF0F3"/>
<path d="M14.1603 13.4749H17.3721L17.527 11.5999H14.2225L14.1603 13.4749Z" fill="#C7D9FF"/>
<path d="M9.77747 11.5999H6.47296L6.62787 13.4749H9.83972L9.77747 11.5999Z" fill="#C7D9FF"/>
<path d="M21.6385 12.7717H2.36151C2.10699 12.7717 1.90082 12.5656 1.90082 12.3112V10.8885C1.90082 10.6342 2.10699 10.428 2.36151 10.428H21.6385C21.893 10.428 22.0992 10.6342 22.0992 10.8885V12.3112C22.0992 12.5656 21.893 12.7717 21.6385 12.7717Z" fill="#B790DC"/>
</svg>
