<svg width="23" height="23" viewBox="0 0 23 23" fill="none" xmlns="http://www.w3.org/2000/svg">
<path d="M22.6876 21.3376L17.1656 15.8156C18.5344 14.1469 19.3594 12.0094 19.3594 9.67969C19.3594 4.33594 15.0235 0 9.67969 0C4.33125 0 0 4.33594 0 9.67969C0 15.0235 4.33125 19.3594 9.67969 19.3594C12.0094 19.3594 14.1422 18.539 15.811 17.1703L21.3328 22.6876C21.7078 23.0626 22.3126 23.0626 22.6876 22.6876C23.0626 22.3172 23.0626 21.7078 22.6876 21.3376ZM9.67969 17.4328C5.4 17.4328 1.92188 13.9547 1.92188 9.67969C1.92188 5.40469 5.4 1.92188 9.67969 1.92188C13.9547 1.92188 17.4376 5.40469 17.4376 9.67969C17.4376 13.9547 13.9547 17.4328 9.67969 17.4328Z" fill="#C5CED5"/>
</svg>
